<svg height="100" viewBox="0 0 100 100" width="100" xmlns="http://www.w3.org/2000/svg"><path d="m68.8 20.3a10.9 10.9 0 1 1 -10.5 13.9h-.4a5 5 0 0 0 -5 5v4.3l6.3 6.3a1.93 1.93 0 0 1 0 2.8l-1.3 1.4a1.93 1.93 0 0 1 -2.8 0l-2.1-2.1v9a10.85 10.85 0 0 1 -10.5 10.9h-.8a10.91 10.91 0 1 1 -10.5-13.9 11 11 0 0 1 10.5 7.9h.4a5 5 0 0 0 5-5v-8.7l-1.8 1.9a1.93 1.93 0 0 1 -2.8 0l-1.4-1.4a1.93 1.93 0 0 1 0-2.8l5.9-5.9v-4.7a10.85 10.85 0 0 1 10.5-10.9h.8a10.83 10.83 0 0 1 10.5-8zm-37.6 43.6a5 5 0 0 0 -5 5 5 5 0 0 0 10 0 5 5 0 0 0 -5-5zm37.6-37.7a5 5 0 0 0 -5 5 5 5 0 1 0 10 0 5 5 0 0 0 -5-5z" fill="#fff"/></svg>